<svg width="500" height="500" viewBox="0 0 500 500" fill="none" xmlns="http://www.w3.org/2000/svg">
<rect x="277.744" y="193.333" width="42.8941" height="119.374" transform="rotate(45 277.744 193.333)" fill="#FF9F1C"/>
<rect x="308.074" y="277.744" width="42.8941" height="119.374" transform="rotate(135 308.074 277.744)" fill="#FF9F1C"/>
<path d="M310.705 59.6938C345.852 24.5467 402.837 24.5468 437.984 59.6938C473.131 94.841 473.131 151.826 437.984 186.973C395.558 229.399 275.35 222.329 275.35 222.329C275.35 222.329 268.279 102.12 310.705 59.6938ZM376.667 89.3442C360.099 89.3443 346.667 102.776 346.667 119.344C346.667 135.913 360.098 149.344 376.667 149.344C393.235 149.344 406.667 135.913 406.667 119.344C406.667 102.776 393.235 89.3442 376.667 89.3442Z" fill="#FF9F1C"/>
<path d="M59.6938 186.974C24.5467 151.826 24.5468 94.8415 59.6938 59.6943C94.841 24.5472 151.826 24.5472 186.973 59.6943C229.399 102.121 222.329 222.329 222.329 222.329C222.329 222.329 102.12 229.4 59.6938 186.974ZM89.3442 121.012C89.3443 137.58 102.776 151.012 119.344 151.012C135.913 151.012 149.344 137.58 149.344 121.012C149.344 104.443 135.913 91.0117 119.344 91.0117C102.776 91.0119 89.3442 104.443 89.3442 121.012Z" fill="#FF9F1C"/>
<path d="M310.706 439.09C345.853 474.237 402.838 474.237 437.985 439.09C473.132 403.943 473.132 346.958 437.985 311.81C395.589 269.414 275.52 276.445 275.351 276.455C275.351 276.455 268.28 396.663 310.706 439.09ZM376.668 409.439C360.1 409.439 346.668 396.008 346.668 379.439C346.668 362.871 360.1 349.439 376.668 349.439C393.236 349.439 406.668 362.871 406.668 379.439C406.668 396.008 393.236 409.439 376.668 409.439Z" fill="#FF9F1C"/>
<path d="M59.6938 311.811C24.5468 346.958 24.5467 403.943 59.6938 439.09C94.8409 474.237 151.826 474.237 186.973 439.09C229.382 396.681 222.334 276.552 222.329 276.456C222.329 276.456 102.12 269.385 59.6938 311.811ZM89.3442 377.773C89.3442 361.205 102.776 347.773 119.344 347.773C135.913 347.773 149.344 361.204 149.344 377.773C149.344 394.341 135.913 407.773 119.344 407.773C102.776 407.773 89.3443 394.341 89.3442 377.773Z" fill="#FF9F1C"/>
</svg>
